<?xml version="1.0" standalone="no"?>
<!DOCTYPE svg PUBLIC "-//W3C//DTD SVG 20010904//EN"
 "http://www.w3.org/TR/2001/REC-SVG-20010904/DTD/svg10.dtd">
<svg version="1.0" xmlns="http://www.w3.org/2000/svg"
 width="1080.000000pt" height="1080.000000pt" viewBox="0 0 1080.000000 1080.000000"
 preserveAspectRatio="xMidYMid meet">

<g transform="translate(0.000000,1080.000000) scale(0.100000,-0.100000)"
fill="#000000" stroke="none">
<path d="M4380 7485 c0 -21 19 -57 39 -72 40 -31 121 4 121 52 0 21 -4 23 -57
21 -32 0 -68 3 -80 7 -18 7 -23 5 -23 -8z"/>
<path d="M5115 7243 c-82 -135 -184 -300 -226 -367 -41 -66 -96 -155 -121
-196 -25 -41 -116 -190 -203 -330 -192 -310 -568 -920 -647 -1050 -31 -52 -56
-95 -54 -97 2 -2 230 75 507 171 277 96 505 174 506 173 1 -2 -45 -79 -102
-172 -57 -93 -102 -171 -101 -172 2 -2 224 73 494 167 270 93 498 170 506 170
8 0 236 -77 506 -171 271 -94 493 -169 495 -167 2 2 -31 60 -73 128 -117 189
-136 224 -121 218 8 -3 147 -51 309 -108 162 -56 378 -132 480 -167 234 -82
225 -79 215 -62 -4 8 -67 109 -138 224 -223 360 -250 404 -392 635 -222 362
-426 692 -450 730 -21 33 -111 179 -328 533 -49 81 -93 147 -97 147 -4 0 -79
-116 -166 -257 -86 -142 -177 -286 -200 -321 l-42 -64 -54 89 c-30 48 -117
189 -193 313 -76 124 -143 230 -149 237 -8 8 -50 -53 -161 -234z m233 -694
l72 -120 -27 -47 c-15 -26 -77 -128 -138 -227 -269 -436 -315 -511 -324 -524
-7 -11 -31 0 -115 50 -58 35 -106 66 -106 69 0 4 88 152 197 331 108 178 232
384 276 457 44 72 82 132 86 132 3 -1 39 -55 79 -121z m868 -94 c69 -115 178
-295 242 -400 63 -104 131 -216 150 -248 19 -32 32 -60 29 -63 -3 -3 -51 -32
-108 -65 -94 -54 -103 -58 -115 -41 -15 21 -478 771 -482 781 -4 12 139 252
149 249 4 -2 65 -97 135 -213z m-457 -585 c40 -67 71 -123 69 -125 -13 -13
-145 -85 -156 -85 -17 0 -152 80 -152 89 0 20 151 252 160 246 4 -2 40 -59 79
-125z"/>
<path d="M4147 7363 c-4 -3 -7 -17 -7 -30 0 -18 5 -22 23 -20 12 1 21 -3 20
-9 -1 -6 -5 -36 -8 -67 l-6 -56 47 -20 c25 -12 49 -21 53 -21 3 0 17 28 31 62
24 60 34 90 23 68 -6 -13 -43 -13 -43 0 0 6 -9 10 -20 10 -11 0 -20 6 -20 13
0 9 -3 8 -9 -2 -7 -11 -11 -10 -19 6 -8 14 -8 23 0 31 9 9 8 12 -4 12 -8 0
-21 7 -28 15 -14 16 -23 19 -33 8z"/>
<path d="M4367 7182 c-15 -31 -27 -62 -27 -68 0 -5 22 -18 49 -28 l50 -18 35
37 c20 20 36 41 36 46 0 5 7 9 16 9 11 0 14 -6 9 -20 -7 -21 10 -28 18 -7 4 8
6 7 7 -3 0 -8 7 -1 14 15 7 17 12 33 9 37 -3 6 -61 4 -88 -3 -16 -4 -65 12
-65 22 0 5 -6 9 -14 9 -8 0 -16 7 -18 15 -2 8 -15 -12 -31 -43z"/>
<path d="M3970 7150 c-10 -18 -14 -20 -22 -9 -8 11 -9 10 -4 -3 3 -10 -2 -24
-10 -33 -9 -8 -11 -15 -5 -15 13 0 66 69 58 76 -3 3 -11 -4 -17 -16z"/>
<path d="M4180 7121 c0 -5 14 -14 30 -21 17 -7 30 -13 30 -14 0 -5 -248 -577
-252 -581 -5 -5 -353 -133 -540 -199 -60 -21 -108 -43 -108 -48 0 -6 -13 -8
-29 -6 l-28 4 -48 -210 c-26 -116 -62 -269 -79 -341 l-31 -130 -60 -7 c-393
-44 -445 -51 -445 -66 0 -12 -4 -12 -25 2 -13 9 -26 16 -28 16 -2 0 -35 -53
-72 -117 -38 -65 -89 -154 -115 -198 -26 -44 -154 -264 -285 -490 -131 -225
-245 -420 -252 -431 -13 -20 -11 -23 22 -43 20 -11 39 -21 43 -21 4 0 21 24
38 53 17 28 73 124 124 212 51 88 132 228 180 310 166 287 337 580 357 612 11
18 24 29 29 24 14 -12 527 52 532 67 2 6 12 12 22 12 20 0 24 15 156 595 l16
70 192 69 c527 190 517 186 510 212 -4 17 -2 24 5 22 7 -2 22 22 35 52 13 30
34 80 48 110 13 30 58 133 98 228 l74 173 30 -7 c39 -8 24 11 -16 21 -23 6
-29 2 -43 -27 -23 -45 -64 -98 -76 -98 -15 0 -10 46 11 100 26 65 26 67 -10
85 -34 17 -40 18 -40 6z"/>
<path d="M4221 6964 c0 -11 3 -14 6 -6 3 7 2 16 -1 19 -3 4 -6 -2 -5 -13z"/>
<path d="M4531 6890 c-1 -8 -4 -28 -6 -45 l-4 -30 19 25 c11 14 19 32 19 40 0
10 -3 8 -8 -5 -8 -19 -9 -18 -13 5 -3 14 -6 18 -7 10z"/>
<path d="M2603 5063 c-11 -26 -54 -133 -94 -236 -62 -161 -77 -191 -101 -203
-19 -10 -28 -22 -28 -39 0 -25 1 -25 90 -25 89 0 90 0 90 25 0 13 -7 28 -15
32 -13 8 -14 14 -2 48 l14 40 114 0 113 0 14 -38 c13 -33 13 -39 -2 -55 -9
-10 -16 -26 -16 -35 0 -15 13 -17 94 -17 84 0 94 2 91 18 -2 9 -4 22 -4 28 -1
5 -13 14 -27 20 -21 8 -35 32 -83 159 -32 83 -74 188 -93 235 l-34 85 -51 3
-50 3 -20 -48z m147 -270 c0 -9 -23 -13 -80 -13 -44 0 -80 2 -80 4 0 3 42 122
76 216 5 14 83 -180 84 -207z"/>
<path d="M3060 5081 c0 -27 4 -32 30 -37 l30 -6 0 -204 0 -203 -27 -3 c-23 -2
-29 -8 -31 -35 l-3 -33 143 0 c79 0 163 5 188 11 67 15 127 57 162 114 26 42
32 63 36 126 6 96 -14 160 -66 213 -67 70 -104 80 -294 84 l-168 4 0 -31z
m357 -77 c73 -55 97 -182 51 -274 -33 -64 -82 -90 -175 -90 l-73 0 0 196 0
196 84 -3 c66 -3 91 -9 113 -25z"/>
<path d="M3690 5081 c0 -23 6 -31 30 -40 l30 -10 0 -188 c0 -103 -4 -193 -8
-199 -4 -7 -16 -13 -27 -15 -14 -3 -21 -13 -23 -37 l-3 -32 105 0 106 0 0 29
c0 23 -6 31 -30 40 -30 10 -30 10 -30 90 l0 81 135 0 135 0 0 -81 c0 -80 0
-80 -30 -90 -24 -9 -30 -17 -30 -40 l0 -29 106 0 105 0 -3 33 c-2 24 -8 33
-25 35 -23 3 -23 3 -23 207 0 204 0 204 23 207 17 2 23 11 25 36 l3 32 -105 0
-106 0 0 -29 c0 -23 6 -31 30 -40 l31 -10 -3 -78 -3 -78 -130 0 -130 0 -3 78
-3 78 31 10 c24 9 30 17 30 40 l0 29 -105 0 -105 0 0 -29z"/>
<path d="M4360 5081 c0 -23 6 -31 28 -39 22 -7 46 -39 105 -139 77 -129 77
-129 77 -201 0 -63 -2 -72 -18 -72 -25 0 -42 -19 -42 -47 0 -23 2 -23 110 -23
108 0 110 0 110 23 0 28 -17 47 -42 47 -16 0 -18 9 -18 74 0 73 2 77 53 163
30 48 64 107 77 130 16 29 31 43 51 47 24 5 29 10 29 36 l0 30 -100 0 -100 0
0 -29 c0 -21 6 -32 20 -36 19 -6 17 -12 -27 -100 -44 -86 -63 -112 -63 -85 0
5 -20 47 -45 92 -35 61 -42 83 -33 90 7 4 16 8 21 8 4 0 7 14 7 30 l0 30 -100
0 -100 0 0 -29z"/>
<path d="M5119 4871 c-84 -214 -96 -239 -121 -249 -21 -8 -28 -17 -28 -36 l0
-26 90 0 c90 0 90 0 90 25 0 14 -6 28 -14 31 -12 5 -12 12 1 50 l15 44 112 0
113 0 13 -40 c10 -31 11 -43 2 -52 -7 -7 -12 -22 -12 -35 0 -22 3 -23 90 -23
89 0 90 0 90 24 0 17 -9 28 -29 37 -26 11 -37 35 -101 198 -40 103 -82 210
-94 238 l-21 53 -51 0 -51 0 -94 -239z m184 39 c19 -52 38 -103 42 -112 6 -16
-1 -18 -80 -18 -66 0 -86 3 -82 13 2 6 21 58 42 115 21 57 39 102 40 100 1 -2
18 -46 38 -98z"/>
<path d="M5650 5080 c0 -25 5 -31 28 -36 24 -5 41 -27 105 -136 l77 -130 0
-74 c0 -67 -2 -74 -19 -74 -23 0 -28 -7 -35 -43 l-5 -27 110 0 109 0 0 29 c0
23 -6 31 -30 40 -29 10 -30 11 -30 78 0 67 1 70 78 198 57 94 85 131 100 133
26 4 45 34 36 56 -5 13 -24 16 -105 16 -98 0 -99 0 -99 -24 0 -14 9 -31 21
-39 20 -14 19 -16 -29 -107 l-49 -91 -47 85 c-51 95 -53 101 -31 110 9 3 15
18 15 36 l0 30 -100 0 -100 0 0 -30z"/>
<path d="M6500 5088 c-35 -82 -170 -430 -170 -438 0 -5 -13 -16 -30 -25 -16
-9 -30 -19 -31 -23 0 -4 -2 -15 -4 -24 -3 -16 7 -18 91 -18 86 0 94 2 94 19 0
11 -7 27 -16 36 -14 14 -14 19 -1 53 l15 37 112 0 113 0 14 -40 c12 -34 11
-40 -2 -48 -8 -4 -15 -19 -15 -32 0 -25 1 -25 90 -25 89 0 90 0 90 25 0 16 -9
29 -27 39 -24 12 -41 49 -119 247 l-92 234 -51 3 c-45 3 -52 0 -61 -20z m104
-196 c20 -57 36 -105 36 -108 0 -2 -36 -4 -80 -4 -44 0 -80 3 -80 8 0 20 76
220 81 214 4 -4 23 -53 43 -110z"/>
<path d="M6952 5078 c2 -25 9 -34 28 -38 l25 -6 0 -199 0 -199 -25 -6 c-19 -4
-26 -13 -28 -38 l-3 -32 105 0 106 0 0 30 c0 25 -5 31 -32 38 l-33 8 -3 155
-2 154 27 -32 c16 -17 62 -75 103 -129 148 -194 177 -224 216 -224 l34 0 0
239 0 239 25 6 c20 5 25 13 25 36 l0 30 -105 0 -105 0 0 -29 c0 -29 14 -41 51
-41 18 0 19 -9 19 -157 0 -96 -4 -153 -9 -148 -5 6 -60 75 -123 155 -192 247
-164 220 -236 220 l-63 0 3 -32z"/>
<path d="M7820 5023 c-123 -326 -152 -392 -173 -399 -26 -8 -37 -22 -37 -46 0
-16 11 -18 89 -18 97 0 112 9 84 50 -13 19 -14 28 -3 61 l13 39 113 0 112 0
15 -44 c13 -38 13 -45 1 -50 -8 -3 -14 -17 -14 -31 0 -25 0 -25 90 -25 89 0
90 0 90 25 0 17 -9 29 -29 39 -30 16 -25 5 -198 449 -15 36 -16 37 -67 37
l-53 0 -33 -87z m130 -127 c23 -60 39 -110 37 -113 -3 -2 -41 -3 -85 -1 l-80
3 42 112 c22 61 42 110 43 109 2 -1 21 -51 43 -110z"/>
<path d="M2195 4365 c-14 -13 -25 -31 -25 -41 0 -28 29 -79 65 -114 24 -23 35
-43 35 -62 0 -41 -28 -48 -53 -14 -15 20 -22 24 -32 16 -30 -25 10 -70 60 -70
41 0 65 27 65 73 0 30 -9 47 -50 92 -27 30 -50 64 -50 74 0 42 53 50 63 10 7
-25 37 -25 37 1 0 28 -35 60 -65 60 -14 0 -37 -11 -50 -25z"/>
<path d="M2445 4365 c-23 -22 -25 -31 -25 -128 0 -90 3 -108 21 -131 26 -33
79 -36 109 -6 18 18 20 33 20 134 0 112 -1 115 -26 135 -35 28 -69 26 -99 -4z
m83 -132 c-3 -89 -6 -108 -21 -117 -33 -20 -47 16 -47 120 0 103 14 134 51
113 18 -9 19 -19 17 -116z"/>
<path d="M2708 4382 c-16 -3 -18 -19 -18 -153 0 -138 1 -150 18 -147 14 3 18
16 20 71 l3 67 34 0 c24 0 35 5 35 15 0 10 -11 15 -35 15 l-35 0 0 50 0 50 45
0 c32 0 45 4 45 14 0 23 -54 31 -112 18z"/>
<path d="M2921 4377 c-13 -16 -5 -27 21 -27 16 0 18 -10 18 -122 0 -128 7
-155 34 -145 14 5 16 26 16 137 0 122 1 130 19 130 24 0 38 19 22 30 -22 13
-118 11 -130 -3z"/>
<path d="M3747 4378 c-16 -12 -17 -29 -15 -153 3 -117 6 -140 18 -140 12 0 16
16 18 68 2 57 6 68 19 65 11 -2 21 -23 30 -63 15 -66 27 -85 44 -68 8 8 6 28
-5 73 -15 59 -15 64 1 83 23 25 24 100 2 122 -22 22 -89 30 -112 13z m89 -54
c10 -38 -10 -74 -41 -74 -23 0 -25 3 -25 50 0 49 1 50 30 50 23 0 31 -5 36
-26z"/>
<path d="M4010 4383 c-27 -11 -30 -26 -30 -154 0 -97 3 -129 14 -138 21 -18
121 -10 121 9 0 10 -13 16 -42 18 -43 3 -43 3 -43 43 0 21 0 42 0 47 0 4 16 8
35 10 45 4 42 26 -3 30 -31 3 -32 5 -32 52 l0 49 43 3 c29 2 42 8 42 18 0 11
-13 15 -45 17 -25 1 -52 -1 -60 -4z"/>
<path d="M4387 4383 c-15 -15 -6 -33 18 -33 l24 0 3 -132 c3 -110 6 -133 18
-133 12 0 15 23 18 133 l3 132 24 0 c28 0 34 24 9 34 -21 8 -109 8 -117 -1z"/>
<path d="M4650 4383 c-27 -11 -30 -26 -30 -150 0 -129 4 -153 26 -153 11 0 14
17 14 70 0 62 2 70 19 70 14 0 21 -9 26 -32 16 -79 27 -108 40 -108 21 0 23
21 9 70 -18 58 -17 78 1 96 18 19 20 94 3 117 -14 17 -83 30 -108 20z m75 -77
c0 -42 -20 -64 -49 -53 -12 5 -16 19 -16 52 0 46 0 46 33 43 30 -3 32 -5 32
-42z"/>
<path d="M4936 4377 c-13 -9 -25 -49 -42 -138 -28 -145 -29 -159 -10 -159 15
0 26 21 26 51 0 15 7 19 34 19 30 0 35 -4 41 -30 7 -34 22 -47 37 -32 13 13
-35 269 -54 288 -12 12 -17 12 -32 1z m30 -130 c6 -52 5 -57 -13 -57 -29 0
-30 4 -20 70 12 72 24 67 33 -13z"/>
<path d="M6045 4378 c-33 -18 -35 -28 -35 -150 0 -110 1 -118 22 -132 12 -9
34 -16 48 -16 14 0 36 7 48 16 19 13 22 24 22 79 0 56 -3 64 -21 70 -23 8 -54
-14 -31 -22 15 -6 17 -99 2 -108 -6 -3 -19 -3 -30 0 -19 6 -20 14 -18 118 3
106 4 112 25 115 14 2 26 -4 33 -17 14 -27 40 -27 40 -1 0 46 -60 74 -105 48z"/>
<path d="M6443 4378 c-11 -14 -16 -225 -7 -270 6 -31 28 -37 38 -12 3 9 6 73
6 144 0 96 -3 130 -14 139 -10 8 -16 8 -23 -1z"/>
<path d="M6880 4370 c-36 -36 -27 -81 30 -146 51 -58 59 -81 38 -102 -19 -19
-38 -14 -48 14 -11 27 -33 28 -38 1 -5 -23 34 -57 64 -57 40 0 63 18 70 55 5
29 1 43 -20 74 -15 21 -38 49 -51 61 -29 27 -34 75 -9 84 19 7 44 -10 44 -31
0 -16 31 -14 37 3 2 6 -6 23 -17 37 -26 33 -71 36 -100 7z"/>
<path d="M7107 4383 c-15 -15 -6 -33 18 -33 l24 0 3 -132 c3 -110 6 -133 18
-133 12 0 15 23 18 133 l3 132 24 0 c28 0 34 24 9 34 -21 8 -109 8 -117 -1z"/>
<path d="M7511 4381 c-18 -11 -5 -31 20 -31 18 0 19 -8 19 -122 0 -128 7 -155
34 -145 14 5 16 26 16 137 0 122 1 130 19 130 25 0 38 20 20 31 -8 5 -36 9
-64 9 -27 0 -56 -4 -64 -9z"/>
<path d="M8011 4381 c-18 -11 -5 -31 20 -31 18 0 19 -8 19 -112 0 -124 6 -158
25 -158 21 0 25 25 25 151 0 111 1 119 19 119 25 0 38 20 20 31 -8 5 -36 9
-64 9 -27 0 -56 -4 -64 -9z"/>
<path d="M8264 4377 c-19 -11 -21 -266 -2 -285 7 -7 36 -12 66 -12 46 0 53 3
50 18 -2 12 -15 18 -46 20 l-42 3 0 49 c0 49 0 49 35 52 45 4 46 21 3 28 -31
5 -33 7 -36 53 l-3 47 46 0 c39 0 46 3 43 18 -3 13 -14 17 -51 17 -27 0 -55
-4 -63 -8z"/>
<path d="M3157 4373 c-6 -10 19 -283 27 -290 3 -3 11 -3 19 0 9 3 21 41 32
104 9 54 20 101 24 106 4 4 16 -37 26 -90 21 -117 23 -123 40 -123 18 0 22 18
30 115 3 44 8 104 11 133 6 47 4 52 -14 52 -23 0 -32 -32 -32 -114 -1 -64 -13
-45 -30 47 -10 52 -16 67 -30 67 -14 0 -20 -15 -30 -75 -7 -41 -16 -75 -21
-75 -4 0 -9 33 -11 72 -2 58 -6 73 -20 76 -9 2 -18 -1 -21 -5z"/>
<path d="M3515 4368 c-15 -45 -53 -274 -45 -282 13 -13 27 1 33 34 6 27 11 30
42 30 28 0 35 -4 35 -19 0 -29 11 -51 25 -51 22 0 22 19 -5 159 -25 133 -26
136 -53 139 -16 2 -29 -2 -32 -10z m49 -125 c6 -41 5 -43 -19 -43 -29 0 -29
-2 -13 76 13 63 17 58 32 -33z"/>
<path d="M5142 4233 c3 -124 5 -148 18 -148 13 0 15 24 18 148 2 143 2 147
-18 147 -20 0 -20 -4 -18 -147z"/>
<path d="M5302 4233 c3 -124 5 -148 18 -148 12 0 16 21 20 105 l5 105 30 -105
c23 -80 35 -106 49 -108 10 -2 22 2 27 10 5 7 9 75 9 151 0 130 -1 137 -20
137 -19 0 -20 -7 -21 -102 l-1 -103 -33 100 c-29 91 -34 100 -59 103 l-27 3 3
-148z"/>
<path d="M5576 4365 c-8 -21 -8 -233 0 -262 4 -13 12 -23 20 -23 21 0 25 33
22 170 -3 106 -5 125 -19 128 -9 2 -19 -4 -23 -13z"/>
<path d="M5740 4231 c0 -127 2 -151 15 -151 14 0 28 34 25 61 -2 8 -2 41 -1
74 l2 60 32 -95 c26 -78 36 -95 52 -95 19 0 20 8 23 148 2 138 1 148 -15 145
-16 -3 -18 -17 -21 -98 l-3 -95 -32 95 c-27 79 -36 96 -54 98 -23 3 -23 3 -23
-147z"/>
<path d="M6600 4231 c0 -127 2 -151 15 -151 18 0 24 25 27 120 l3 75 24 -85
c26 -92 41 -116 65 -107 14 5 16 29 16 152 0 134 -1 146 -17 143 -15 -3 -18
-17 -21 -98 l-4 -95 -31 95 c-27 79 -36 96 -54 98 -23 3 -23 3 -23 -147z"/>
<path d="M7354 4367 c-2 -7 -3 -73 -2 -147 3 -119 5 -135 21 -138 16 -3 17 9
17 147 0 129 -2 151 -15 151 -9 0 -18 -6 -21 -13z"/>
<path d="M7750 4256 c0 -110 2 -126 21 -150 26 -33 79 -36 109 -6 18 18 20 33
20 150 0 123 -1 130 -20 130 -18 0 -20 -8 -22 -126 -3 -107 -6 -129 -20 -138
-34 -21 -43 7 -46 139 -3 115 -5 125 -23 125 -18 0 -19 -8 -19 -124z"/>
</g>
</svg>
